<svg version="1.1" x="0px" y="0px" width="740" height="172" xmlns="http://www.w3.org/2000/svg" xmlns:xlink="http://www.w3.org/1999/xlink" xmlns:a="http://ns.adobe.com/AdobeSVGViewerExtensions/3.0/" xml:space="preserve"><g transform="translate(0) scale(1.1257455887819 1.1257461291233) rotate(0 83.744506835938 73.284729003906)"><path d="M137.05 67.585c-1.353 0-2.65.528-3.62 1.471l-13.726 13.361-9.785-10.488a5.19 5.19 0 00-8.863 2.421l-7.795 35.292-6.108-54.978a5.19 5.19 0 00-4.851-4.609c-2.522-.136-4.788 1.541-5.362 4.001L65.291 103.97 52.438 91.117h-4.459v9.472c0 .24-.018.477-.037.714l16.611 16.611a5.19 5.19 0 006.209.856c1.313-.73 2.208-2.039 2.551-3.503l6.86-29.397 6.215 55.956c.277 2.487 2.239 4.514 4.735 4.725a5.19 5.19 0 005.505-4.051l12.431-56.271 6.668 7.146a5.188 5.188 0 003.671 1.648c1.396.012 2.745-.495 3.745-1.47l16.014-15.588h27.058c.704 0 1.274-.57 1.274-1.274V68.86c0-.704-.57-1.274-1.274-1.274H137.05z" fill="#4fb82a"></path><path d="M12.364 47.942a27.26 27.26 0 01-1.984-10.246c0-7.296 2.841-14.155 8-19.313 5.16-5.159 12.018-8 19.313-8 7.295 0 14.153 2.841 19.313 8l6.263 6.262a5.19 5.19 0 007.339 0l6.263-6.262.012-.011c5.157-5.155 12.01-7.993 19.301-7.993h.007c7.293.001 14.15 2.843 19.306 8.002l.006.006a.022.022 0 01.005.004c5.156 5.159 7.994 12.017 7.992 19.31-.001 7.294-2.843 14.15-8.002 19.306l7.338 7.342c7.12-7.116 11.043-16.579 11.045-26.645.003-10.066-3.916-19.53-11.031-26.65l-.011-.011C115.722 3.924 106.26.001 96.193 0h-.01C86.122 0 76.662 3.916 69.545 11.029l-.013.013-2.594 2.594-2.592-2.594C57.227 3.923 47.761.002 37.694.002S18.16 3.923 11.042 11.042C3.921 18.162 0 27.627 0 37.696c0 6.296 1.534 12.356 4.424 17.755h7.94v-7.509z" fill="#4fb82a"></path><path d="M53.179 64.782H37.967V50.219a4.027 4.027 0 00-4.028-4.028H25.6a4.027 4.027 0 00-4.028 4.028v14.563H7.007A4.028 4.028 0 002.98 68.81v8.989a4.028 4.028 0 004.027 4.027h14.564v14.563a4.027 4.027 0 004.028 4.028h8.339a4.027 4.027 0 004.028-4.028V81.826h15.212a4.029 4.029 0 004.028-4.027V68.81a4.026 4.026 0 00-4.027-4.028z" fill="#e8337a"></path></g>
<g transform="translate(220.6328125 109.83870967742)  scale(1 1)"><text dominant-baseline="auto" alignment-baseline="auto" font-family="Aquatico" font-size="62px" fill="#e8337a" letter-spacing="0" xml:space="preserve">RIEM</text></g>
<g transform="translate(400.8359375 109.83870967742)  scale(1 1)"><text dominant-baseline="auto" alignment-baseline="auto" font-family="Aquatico" font-size="62px" fill="#4fb82a" letter-spacing="0" xml:space="preserve">APOTHEKE</text></g>
<g transform="translate(373.125 159.83870967742)  scale(1 1)"><text dominant-baseline="auto" alignment-baseline="auto" font-family="Aquatico" font-size="34px" fill="#4fb82a" letter-spacing="0" xml:space="preserve">LANDSHUT</text></g>
</svg>